<?xml version="1.0" encoding="iso-8859-1"?>
<!-- Uploaded to: SVG Repo, www.svgrepo.com, Generator: SVG Repo Mixer Tools -->
<svg fill="#000000" height="800px" width="800px" version="1.1" id="Layer_1" xmlns="http://www.w3.org/2000/svg" xmlns:xlink="http://www.w3.org/1999/xlink" 
	 viewBox="0 0 290.625 290.625" xml:space="preserve">
<g>
	<g>
		<path d="M290.625,234.375V225H262.5v-9.375h18.75V187.5H262.5v-9.375h18.75V150H103.125v28.125h18.75v9.375h-18.75v28.125h18.75
			V225H93.75v9.375h28.125v46.875h-56.25v-28.125H51.563v-131.25h-9.375V35.156c0-14.212,11.569-25.781,25.781-25.781
			c13.556,0,24.675,10.528,25.683,23.827c-15.825,2.33-28.027,15.961-28.027,32.423v4.688h18.75c0,7.753,6.309,14.063,14.063,14.063
			c7.754,0,14.062-6.31,14.062-14.063h18.75v-4.688c0-16.528-12.305-30.211-28.223-32.452C101.986,14.709,86.686,0,67.969,0
			C48.581,0,32.813,15.769,32.813,35.156v86.719h-9.375v131.25H9.375v28.125H0v9.375h9.375h56.25h56.25H150h84.375H262.5h28.125
			v-9.375H262.5v-46.875H290.625z M98.438,75c-2.588,0-4.688-2.1-4.688-4.688h9.375C103.125,72.9,101.025,75,98.438,75z
			 M121.402,60.938H112.5H84.375h-8.902c2.18-10.683,11.644-18.75,22.964-18.75S119.227,50.255,121.402,60.938z M32.813,131.25
			h9.375v121.875h-9.375V131.25z M56.251,281.25H18.75V262.5h4.688h28.125h4.688V281.25z M112.5,168.75v-9.375h159.375v9.375H112.5z
			 M253.125,178.125v9.375h-9.375v-9.375H253.125z M234.375,178.125v9.375H150v-9.375H234.375z M140.625,178.125v9.375h-9.375
			v-9.375H140.625z M234.375,281.25H150v-32.813h84.375V281.25z M243.75,281.25v-42.188h-4.688h-4.688H150h-4.688h-4.688v42.188
			h-9.375v-46.875h121.875v46.875H243.75z M131.25,225v-9.375h9.375V225H131.25z M150,225v-9.375h84.375V225H150z M253.125,225
			h-9.375v-9.375h9.375V225z M234.375,206.25H150h-28.125H112.5v-9.375h159.375v9.375H262.5H234.375z"/>
	</g>
</g>
</svg>