<svg id="Lager_2" data-name="Lager 2" xmlns="http://www.w3.org/2000/svg" viewBox="0 0 250 250"><path d="M204.1,36.45V117.3H136.55a3.37,3.37,0,0,0-1,.09.51.51,0,0,0-.35.35,3.41,3.41,0,0,0-.09,1v11.2a3.37,3.37,0,0,0,.09,1,.5.5,0,0,0,.35.35,3.37,3.37,0,0,0,1,.09H204.1v82.25H74.25q-.52,0-3.5-2.62c-2-1.75-4.37-4-7.18-6.66s-5.54-5.39-8.22-8.13-4.93-5.1-6.74-7.09-2.71-3.15-2.71-3.5V64.45c0-.35.9-1.51,2.71-3.5s4-4.34,6.74-7.09,5.43-5.45,8.22-8.14,5.19-4.9,7.18-6.65,3.15-2.62,3.5-2.62Z" style="fill:none;stroke:#fff;stroke-miterlimit:10;stroke-width:9px"/></svg>