<?xml version="1.0" encoding="iso-8859-1"?>
<!-- Uploaded to: SVG Repo, www.svgrepo.com, Generator: SVG Repo Mixer Tools -->
<svg fill="#000000" height="800px" width="800px" version="1.1" id="Layer_1" xmlns="http://www.w3.org/2000/svg" xmlns:xlink="http://www.w3.org/1999/xlink" 
	 viewBox="0 0 512 512" xml:space="preserve">
<g>
	<g>
		<g>
			<path d="M256,138.667c-5.867,0-10.667,4.8-10.667,10.667v352c0,5.867,4.8,10.667,10.667,10.667c5.867,0,10.667-4.8,10.667-10.667
				v-352C266.667,143.467,261.867,138.667,256,138.667z"/>
			<path d="M106.667,170.667c5.867,0,10.667-4.8,10.667-10.667C117.44,83.413,179.413,21.44,256,21.333
				c68.373,0,125.12,49.707,136.427,114.88l-52.8-37.76c-4.8-3.307-11.52-2.133-14.827,2.773c-3.307,4.693-2.24,11.2,2.453,14.613
				l68.907,49.387c1.813,3.413,5.333,5.547,9.173,5.653c0.32,0,0.533-0.107,0.853-0.213c0.427,0.107,0.747,0.107,1.173,0.213
				c1.6,0,3.093-0.427,4.587-1.067c0.107,0,0.213-0.107,0.32-0.107c1.387-0.747,2.56-1.813,3.52-2.987
				c0.107-0.107,0.213-0.107,0.32-0.213c0.107-0.107,0-0.107,0.107-0.213c0.107-0.107,0.213-0.213,0.213-0.32l40.64-64
				c3.093-5.013,1.493-11.627-3.52-14.613c-4.907-2.987-11.307-1.6-14.4,3.2l-25.813,40.64C399.467,56.533,334.293,0,256,0
				C167.787,0,96,71.787,96,160C96,165.867,100.8,170.667,106.667,170.667z"/>
			<path d="M199.04,312L28.373,162.667c-4.48-3.84-11.2-3.413-15.04,0.96c-1.707,1.92-2.667,4.48-2.667,7.04v298.667
				c0,5.867,4.8,10.667,10.667,10.667c2.56,0,5.12-0.96,7.04-2.667L199.04,328c4.48-3.84,4.907-10.667,0.96-15.04
				C199.68,312.64,199.36,312.213,199.04,312z M32,445.867V194.133L175.787,320L32,445.867z"/>
			<path d="M495.04,160.96c-3.84-1.707-8.32-1.067-11.413,1.707L312.96,312c-4.48,3.84-4.907,10.667-0.96,15.04
				c0.32,0.32,0.64,0.747,0.96,0.96l170.667,149.333c1.92,1.707,4.48,2.667,7.04,2.667c5.867,0,10.667-4.8,10.667-10.667V170.667
				C501.333,166.507,498.88,162.667,495.04,160.96z M480,445.867L336.213,320L480,194.133V445.867z"/>
		</g>
	</g>
</g>
</svg>